<?xml version="1.0" encoding="utf-8"?>
<svg xmlns="http://www.w3.org/2000/svg"
	xmlns:xlink="http://www.w3.org/1999/xlink"
	width="14px" height="18px" viewBox="0 0 14 18">
<filter filterUnits="objectBoundingBox" x="0.00" y="0.00" width="100.00" height="100.00" id="filter0">
<feFlood flood-color="rgb(49,163,229)" result="coFloodOut1"/>
<feComposite in="coFloodOut1" in2="SourceAlpha" operator="in" result="coOverlay1"/>
<feBlend in="coOverlay1" in2="SourceGraphic" mode="normal" result="colorOverlay1"/>
</filter>
<path fillRule="evenodd" d="M 13 18C 13 18 1 18 1 18 0.45 18-0 17.55-0 17-0 17-0 1-0 1-0 0.45 0.45-0 1-0 1-0 13-0 13-0 13.55-0 14 0.45 14 1 14 1 14 17 14 17 14 17.55 13.55 18 13 18ZM 12 2C 12 2 2 2 2 2 2 2 2 4 2 4 2 4 12 4 12 4 12 4 12 2 12 2ZM 12 15C 12 15 12 10 12 10 12 10 12 9 12 9 12 9 12 7 12 7 12 7 12 6 12 6 12 6 11 6 11 6 11 6 9 6 9 6 9 6 8 6 8 6 8 6 6 6 6 6 6 6 5 6 5 6 5 6 3 6 3 6 3 6 2 6 2 6 2 6 2 7 2 7 2 7 2 9 2 9 2 9 2 10 2 10 2 10 2 12 2 12 2 12 2 13 2 13 2 13 2 15 2 15 2 15 2 16 2 16 2 16 12 16 12 16 12 16 12 15 12 15ZM 5 9C 5 9 3 9 3 9 3 9 3 7 3 7 3 7 5 7 5 7 5 7 5 9 5 9ZM 5 12C 5 12 3 12 3 12 3 12 3 10 3 10 3 10 5 10 5 10 5 10 5 12 5 12ZM 5 15C 5 15 3 15 3 15 3 15 3 13 3 13 3 13 5 13 5 13 5 13 5 15 5 15ZM 8 9C 8 9 6 9 6 9 6 9 6 7 6 7 6 7 8 7 8 7 8 7 8 9 8 9ZM 8 12C 8 12 6 12 6 12 6 12 6 10 6 10 6 10 8 10 8 10 8 10 8 12 8 12ZM 8 15C 8 15 6 15 6 15 6 15 6 13 6 13 6 13 8 13 8 13 8 13 8 15 8 15ZM 11 9C 11 9 9 9 9 9 9 9 9 7 9 7 9 7 11 7 11 7 11 7 11 9 11 9ZM 11 15C 11 15 9 15 9 15 9 15 9 10 9 10 9 10 11 10 11 10 11 10 11 15 11 15Z" fill="rgb(19,29,69)" filter="url(#filter0)"/></svg>
