<?xml version="1.0" encoding="utf-8"?>
<svg xmlns="http://www.w3.org/2000/svg"
	xmlns:xlink="http://www.w3.org/1999/xlink"
	width="14px" height="18px" viewBox="0 0 14 18">
<filter filterUnits="objectBoundingBox" x="0.00" y="0.00" width="100.00" height="100.00" id="filter0">
<feFlood flood-color="rgb(49,163,229)" result="coFloodOut1"/>
<feComposite in="coFloodOut1" in2="SourceAlpha" operator="in" result="coOverlay1"/>
<feBlend in="coOverlay1" in2="SourceGraphic" mode="normal" result="colorOverlay1"/>
</filter>
<path fillRule="evenodd" d="M 13 18C 13 18 1 18 1 18 0.45 18-0 17.55-0 17-0 17-0 1-0 1-0 0.45 0.45-0 1-0 1-0 13-0 13-0 13.55-0 14 0.45 14 1 14 1 14 17 14 17 14 17.55 13.55 18 13 18ZM 12 15C 12 15 12 10 12 10 12 10 12 9 12 9 12 9 12 8 12 8 12 8 12 7 12 7 12 7 12 6 12 6 12 6 12 4 12 4 12 4 12 3 12 3 12 3 12 2 12 2 12 2 2 2 2 2 2 2 2 3 2 3 2 3 2 4 2 4 2 4 2 6 2 6 2 6 2 7 2 7 2 7 2 8 2 8 2 8 2 9 2 9 2 9 2 10 2 10 2 10 2 12 2 12 2 12 2 13 2 13 2 13 2 15 2 15 2 15 2 16 2 16 2 16 12 16 12 16 12 16 12 15 12 15ZM 7 4C 7 4 3 4 3 4 3 4 3 3 3 3 3 3 7 3 7 3 7 3 7 4 7 4ZM 8 6C 8 6 3 6 3 6 3 6 3 5 3 5 3 5 8 5 8 5 8 5 8 6 8 6ZM 11 9C 11 9 3 9 3 9 3 9 3 8 3 8 3 8 11 8 11 8 11 8 11 9 11 9ZM 11 11C 11 11 3 11 3 11 3 11 3 10 3 10 3 10 11 10 11 10 11 10 11 11 11 11ZM 11 13C 11 13 3 13 3 13 3 13 3 12 3 12 3 12 11 12 11 12 11 12 11 13 11 13ZM 11 15C 11 15 3 15 3 15 3 15 3 14 3 14 3 14 11 14 11 14 11 14 11 15 11 15Z" fill="rgb(19,29,69)" filter="url(#filter0)"/></svg>
